STARTFONT 2.1
FONT -ibm-courier-bold-r-normal--10-100-75-75-m-56-iso8859-2
SIZE 10 75 75
FONTBOUNDINGBOX 9 11 -1 -1
COMMENT $Header: courB10.bdf,v 1.1 96/01/22 23:45:30 peterlin Exp $
COMMENT 
COMMENT Copyright International Business Machines,Corp. 1991
COMMENT IBM Courier is a Trademark of the IBM Corporation.
COMMENT 
COMMENT Automatic rendering from Adobe Type 1 outline:
COMMENT Primoz Peterlin <primoz.peterlin@biofiz.mf.uni-lj.si>
COMMENT courb.pfa rendered at 11.000000 points
COMMENT Checksum eb69a063
STARTPROPERTIES 3
FONT_ASCENT 9
FONT_DESCENT 1
DEFAULT_CHAR 32
ENDPROPERTIES
CHARS 191
STARTCHAR space
ENCODING 32
SWIDTH 606 0
DWIDTH 7 0
BBX 0 0 0 1
BITMAP
ENDCHAR
STARTCHAR exclam
ENCODING 33
SWIDTH 606 0
DWIDTH 7 0
BBX 2 7 2 0
BITMAP
40
40
40
40
00
c0
c0
ENDCHAR
STARTCHAR quotedbl
ENCODING 34
SWIDTH 606 0
DWIDTH 7 0
BBX 3 3 1 4
BITMAP
a0
a0
a0
ENDCHAR
STARTCHAR numbersign
ENCODING 35
SWIDTH 606 0
DWIDTH 7 0
BBX 5 8 1 0
BITMAP
d8
58
f8
d0
d8
f8
d0
d8
ENDCHAR
STARTCHAR dollar
ENCODING 36
SWIDTH 606 0
DWIDTH 7 0
BBX 5 8 1 0
BITMAP
60
f8
f8
e0
78
d8
f0
60
ENDCHAR
STARTCHAR percent
ENCODING 37
SWIDTH 606 0
DWIDTH 7 0
BBX 7 7 0 1
BITMAP
60
f0
ec
30
5c
36
1c
ENDCHAR
STARTCHAR ampersand
ENCODING 38
SWIDTH 606 0
DWIDTH 7 0
BBX 5 6 1 1
BITMAP
70
c0
40
f8
f0
78
ENDCHAR
STARTCHAR quoteright
ENCODING 39
SWIDTH 606 0
DWIDTH 7 0
BBX 3 3 1 4
BITMAP
40
c0
80
ENDCHAR
STARTCHAR parenleft
ENCODING 40
SWIDTH 606 0
DWIDTH 7 0
BBX 3 8 2 0
BITMAP
20
60
40
c0
c0
40
60
20
ENDCHAR
STARTCHAR parenright
ENCODING 41
SWIDTH 606 0
DWIDTH 7 0
BBX 3 8 1 0
BITMAP
c0
40
60
60
60
60
40
40
ENDCHAR
STARTCHAR asterisk
ENCODING 42
SWIDTH 606 0
DWIDTH 7 0
BBX 5 4 1 3
BITMAP
20
f0
60
50
ENDCHAR
STARTCHAR plus
ENCODING 43
SWIDTH 606 0
DWIDTH 7 0
BBX 5 5 1 2
BITMAP
60
60
f8
60
60
ENDCHAR
STARTCHAR comma
ENCODING 44
SWIDTH 606 0
DWIDTH 7 0
BBX 3 3 1 0
BITMAP
60
c0
80
ENDCHAR
STARTCHAR minus
ENCODING 45
SWIDTH 606 0
DWIDTH 7 0
BBX 5 1 1 4
BITMAP
f8
ENDCHAR
STARTCHAR period
ENCODING 46
SWIDTH 606 0
DWIDTH 7 0
BBX 2 2 2 0
BITMAP
c0
c0
ENDCHAR
STARTCHAR slash
ENCODING 47
SWIDTH 606 0
DWIDTH 7 0
BBX 5 9 1 0
BITMAP
08
10
10
10
20
20
40
40
80
ENDCHAR
STARTCHAR zero
ENCODING 48
SWIDTH 606 0
DWIDTH 7 0
BBX 5 7 1 1
BITMAP
70
d0
d8
d8
d8
d8
70
ENDCHAR
STARTCHAR one
ENCODING 49
SWIDTH 606 0
DWIDTH 7 0
BBX 5 7 1 1
BITMAP
60
a0
20
20
60
60
f8
ENDCHAR
STARTCHAR two
ENCODING 50
SWIDTH 606 0
DWIDTH 7 0
BBX 6 7 0 1
BITMAP
78
cc
0c
08
10
6c
7c
ENDCHAR
STARTCHAR three
ENCODING 51
SWIDTH 606 0
DWIDTH 7 0
BBX 5 7 1 1
BITMAP
e0
b0
30
70
18
18
f0
ENDCHAR
STARTCHAR four
ENCODING 52
SWIDTH 606 0
DWIDTH 7 0
BBX 6 7 0 1
BITMAP
18
38
58
58
fc
18
3c
ENDCHAR
STARTCHAR five
ENCODING 53
SWIDTH 606 0
DWIDTH 7 0
BBX 5 7 1 1
BITMAP
f8
c0
f0
98
18
18
f0
ENDCHAR
STARTCHAR six
ENCODING 54
SWIDTH 606 0
DWIDTH 7 0
BBX 6 7 0 1
BITMAP
1c
20
40
f8
cc
cc
38
ENDCHAR
STARTCHAR seven
ENCODING 55
SWIDTH 606 0
DWIDTH 7 0
BBX 6 7 0 1
BITMAP
fc
c8
08
08
10
10
10
ENDCHAR
STARTCHAR eight
ENCODING 56
SWIDTH 606 0
DWIDTH 7 0
BBX 5 7 1 1
BITMAP
70
d8
d8
30
d8
d8
70
ENDCHAR
STARTCHAR nine
ENCODING 57
SWIDTH 606 0
DWIDTH 7 0
BBX 6 7 0 1
BITMAP
78
cc
cc
5c
38
18
60
ENDCHAR
STARTCHAR colon
ENCODING 58
SWIDTH 606 0
DWIDTH 7 0
BBX 2 5 2 0
BITMAP
c0
c0
00
c0
c0
ENDCHAR
STARTCHAR semicolon
ENCODING 59
SWIDTH 606 0
DWIDTH 7 0
BBX 2 5 2 0
BITMAP
c0
c0
c0
80
80
ENDCHAR
STARTCHAR less
ENCODING 60
SWIDTH 606 0
DWIDTH 7 0
BBX 6 5 0 2
BITMAP
0c
30
c0
30
0c
ENDCHAR
STARTCHAR equal
ENCODING 61
SWIDTH 606 0
DWIDTH 7 0
BBX 5 3 1 3
BITMAP
f8
00
f8
ENDCHAR
STARTCHAR greater
ENCODING 62
SWIDTH 606 0
DWIDTH 7 0
BBX 6 5 0 2
BITMAP
c0
70
0c
30
c0
ENDCHAR
STARTCHAR question
ENCODING 63
SWIDTH 606 0
DWIDTH 7 0
BBX 5 7 1 0
BITMAP
f8
18
38
60
00
60
60
ENDCHAR
STARTCHAR at
ENCODING 64
SWIDTH 606 0
DWIDTH 7 0
BBX 7 6 0 1
BITMAP
7c
fe
ee
fc
fc
7c
ENDCHAR
STARTCHAR A
ENCODING 65
SWIDTH 606 0
DWIDTH 7 0
BBX 7 6 0 1
BITMAP
70
28
28
7c
44
ee
ENDCHAR
STARTCHAR B
ENCODING 66
SWIDTH 606 0
DWIDTH 7 0
BBX 7 6 0 1
BITMAP
f8
6c
7c
66
66
fc
ENDCHAR
STARTCHAR C
ENCODING 67
SWIDTH 606 0
DWIDTH 7 0
BBX 7 6 0 1
BITMAP
7c
c4
c0
c0
44
3c
ENDCHAR
STARTCHAR D
ENCODING 68
SWIDTH 606 0
DWIDTH 7 0
BBX 7 6 0 1
BITMAP
fc
66
66
66
66
fc
ENDCHAR
STARTCHAR E
ENCODING 69
SWIDTH 606 0
DWIDTH 7 0
BBX 7 6 0 1
BITMAP
fe
7c
78
7e
66
fe
ENDCHAR
STARTCHAR F
ENCODING 70
SWIDTH 606 0
DWIDTH 7 0
BBX 6 6 1 1
BITMAP
fc
f8
f0
f0
c0
e0
ENDCHAR
STARTCHAR G
ENCODING 71
SWIDTH 606 0
DWIDTH 7 0
BBX 6 6 0 1
BITMAP
7c
cc
c0
dc
4c
3c
ENDCHAR
STARTCHAR H
ENCODING 72
SWIDTH 606 0
DWIDTH 7 0
BBX 6 6 0 1
BITMAP
ec
6c
7c
6c
6c
ec
ENDCHAR
STARTCHAR I
ENCODING 73
SWIDTH 606 0
DWIDTH 7 0
BBX 5 6 1 1
BITMAP
f8
60
60
60
60
f8
ENDCHAR
STARTCHAR J
ENCODING 74
SWIDTH 606 0
DWIDTH 7 0
BBX 6 6 0 1
BITMAP
3c
0c
0c
cc
cc
78
ENDCHAR
STARTCHAR K
ENCODING 75
SWIDTH 606 0
DWIDTH 7 0
BBX 6 6 1 1
BITMAP
dc
d0
e0
f0
d8
cc
ENDCHAR
STARTCHAR L
ENCODING 76
SWIDTH 606 0
DWIDTH 7 0
BBX 6 6 1 1
BITMAP
e0
c0
c0
c8
cc
fc
ENDCHAR
STARTCHAR M
ENCODING 77
SWIDTH 606 0
DWIDTH 7 0
BBX 7 6 0 1
BITMAP
ce
ec
ec
dc
4c
ee
ENDCHAR
STARTCHAR N
ENCODING 78
SWIDTH 606 0
DWIDTH 7 0
BBX 7 6 0 1
BITMAP
ce
ec
dc
dc
dc
ec
ENDCHAR
STARTCHAR O
ENCODING 79
SWIDTH 606 0
DWIDTH 7 0
BBX 7 6 0 1
BITMAP
78
c6
c6
c6
4c
38
ENDCHAR
STARTCHAR P
ENCODING 80
SWIDTH 606 0
DWIDTH 7 0
BBX 6 6 1 1
BITMAP
f8
cc
cc
f8
c0
e0
ENDCHAR
STARTCHAR Q
ENCODING 81
SWIDTH 606 0
DWIDTH 7 0
BBX 7 7 0 0
BITMAP
7c
c6
c6
c6
ce
78
3e
ENDCHAR
STARTCHAR R
ENCODING 82
SWIDTH 606 0
DWIDTH 7 0
BBX 6 6 0 1
BITMAP
fc
6c
78
78
68
ec
ENDCHAR
STARTCHAR S
ENCODING 83
SWIDTH 606 0
DWIDTH 7 0
BBX 7 6 0 1
BITMAP
76
cc
78
0c
cc
f8
ENDCHAR
STARTCHAR T
ENCODING 84
SWIDTH 606 0
DWIDTH 7 0
BBX 7 6 0 1
BITMAP
fe
b6
b4
30
30
38
ENDCHAR
STARTCHAR U
ENCODING 85
SWIDTH 606 0
DWIDTH 7 0
BBX 6 6 0 1
BITMAP
ec
cc
cc
cc
cc
78
ENDCHAR
STARTCHAR V
ENCODING 86
SWIDTH 606 0
DWIDTH 7 0
BBX 7 6 0 1
BITMAP
ee
44
6c
28
38
10
ENDCHAR
STARTCHAR W
ENCODING 87
SWIDTH 606 0
DWIDTH 7 0
BBX 7 6 0 1
BITMAP
ee
54
74
6c
6c
6c
ENDCHAR
STARTCHAR X
ENCODING 88
SWIDTH 606 0
DWIDTH 7 0
BBX 7 6 0 1
BITMAP
6c
28
18
28
4c
ee
ENDCHAR
STARTCHAR Y
ENCODING 89
SWIDTH 606 0
DWIDTH 7 0
BBX 6 6 0 1
BITMAP
ec
48
58
30
30
38
ENDCHAR
STARTCHAR Z
ENCODING 90
SWIDTH 606 0
DWIDTH 7 0
BBX 6 6 0 1
BITMAP
fc
c8
10
2c
6c
7c
ENDCHAR
STARTCHAR bracketleft
ENCODING 91
SWIDTH 606 0
DWIDTH 7 0
BBX 2 8 3 0
BITMAP
c0
c0
c0
c0
c0
c0
c0
c0
ENDCHAR
STARTCHAR backslash
ENCODING 92
SWIDTH 606 0
DWIDTH 7 0
BBX 5 10 1 -1
BITMAP
80
c0
40
40
20
20
10
10
08
08
ENDCHAR
STARTCHAR bracketright
ENCODING 93
SWIDTH 606 0
DWIDTH 7 0
BBX 3 8 1 0
BITMAP
e0
60
60
60
60
60
60
e0
ENDCHAR
STARTCHAR asciicircum
ENCODING 94
SWIDTH 606 0
DWIDTH 7 0
BBX 5 4 1 3
BITMAP
20
50
50
88
ENDCHAR
STARTCHAR underscore
ENCODING 95
SWIDTH 606 0
DWIDTH 7 0
BBX 8 1 -1 -1
BITMAP
ff
ENDCHAR
STARTCHAR quoteleft
ENCODING 96
SWIDTH 606 0
DWIDTH 7 0
BBX 3 3 1 4
BITMAP
20
60
40
ENDCHAR
STARTCHAR a
ENCODING 97
SWIDTH 606 0
DWIDTH 7 0
BBX 6 5 0 1
BITMAP
78
0c
7c
cc
7c
ENDCHAR
STARTCHAR b
ENCODING 98
SWIDTH 606 0
DWIDTH 7 0
BBX 7 7 0 1
BITMAP
c0
40
78
46
c6
c6
f8
ENDCHAR
STARTCHAR c
ENCODING 99
SWIDTH 606 0
DWIDTH 7 0
BBX 6 5 0 1
BITMAP
3c
c4
c0
c4
78
ENDCHAR
STARTCHAR d
ENCODING 100
SWIDTH 606 0
DWIDTH 7 0
BBX 7 7 0 1
BITMAP
1c
04
7c
cc
c4
cc
7e
ENDCHAR
STARTCHAR e
ENCODING 101
SWIDTH 606 0
DWIDTH 7 0
BBX 8 5 0 1
BITMAP
38
c6
fe
c7
78
ENDCHAR
STARTCHAR f
ENCODING 102
SWIDTH 606 0
DWIDTH 7 0
BBX 5 7 1 1
BITMAP
70
60
f0
60
60
60
f0
ENDCHAR
STARTCHAR g
ENCODING 103
SWIDTH 606 0
DWIDTH 7 0
BBX 6 7 0 -1
BITMAP
7c
cc
cc
cc
7c
0c
38
ENDCHAR
STARTCHAR h
ENCODING 104
SWIDTH 606 0
DWIDTH 7 0
BBX 6 7 0 1
BITMAP
e0
40
38
2c
6c
6c
ec
ENDCHAR
STARTCHAR i
ENCODING 105
SWIDTH 606 0
DWIDTH 7 0
BBX 5 7 1 1
BITMAP
40
00
e0
60
60
60
f8
ENDCHAR
STARTCHAR j
ENCODING 106
SWIDTH 606 0
DWIDTH 7 0
BBX 4 9 1 -1
BITMAP
20
00
f0
30
30
30
30
b0
e0
ENDCHAR
STARTCHAR k
ENCODING 107
SWIDTH 606 0
DWIDTH 7 0
BBX 6 7 0 1
BITMAP
e0
20
3c
30
70
78
fc
ENDCHAR
STARTCHAR l
ENCODING 108
SWIDTH 606 0
DWIDTH 7 0
BBX 5 7 1 1
BITMAP
60
20
20
20
60
60
f8
ENDCHAR
STARTCHAR m
ENCODING 109
SWIDTH 606 0
DWIDTH 7 0
BBX 7 5 0 1
BITMAP
fc
f6
f6
f6
fe
ENDCHAR
STARTCHAR n
ENCODING 110
SWIDTH 606 0
DWIDTH 7 0
BBX 6 5 0 1
BITMAP
f8
6c
6c
6c
ec
ENDCHAR
STARTCHAR o
ENCODING 111
SWIDTH 606 0
DWIDTH 7 0
BBX 7 5 0 1
BITMAP
78
c6
c6
c6
78
ENDCHAR
STARTCHAR p
ENCODING 112
SWIDTH 606 0
DWIDTH 7 0
BBX 7 7 0 -1
BITMAP
f8
c6
c6
c6
f8
c0
f0
ENDCHAR
STARTCHAR q
ENCODING 113
SWIDTH 606 0
DWIDTH 7 0
BBX 7 7 0 -1
BITMAP
7e
cc
cc
cc
7c
0c
1e
ENDCHAR
STARTCHAR r
ENCODING 114
SWIDTH 606 0
DWIDTH 7 0
BBX 5 5 1 1
BITMAP
b8
e0
c0
c0
f0
ENDCHAR
STARTCHAR s
ENCODING 115
SWIDTH 606 0
DWIDTH 7 0
BBX 6 5 0 1
BITMAP
78
cc
7c
cc
f8
ENDCHAR
STARTCHAR t
ENCODING 116
SWIDTH 606 0
DWIDTH 7 0
BBX 5 6 1 1
BITMAP
c0
f0
c0
c0
c0
f8
ENDCHAR
STARTCHAR u
ENCODING 117
SWIDTH 606 0
DWIDTH 7 0
BBX 6 5 0 1
BITMAP
ec
6c
6c
6c
3c
ENDCHAR
STARTCHAR v
ENCODING 118
SWIDTH 606 0
DWIDTH 7 0
BBX 7 5 0 1
BITMAP
ee
4c
28
38
10
ENDCHAR
STARTCHAR w
ENCODING 119
SWIDTH 606 0
DWIDTH 7 0
BBX 6 5 0 1
BITMAP
cc
54
54
68
68
ENDCHAR
STARTCHAR x
ENCODING 120
SWIDTH 606 0
DWIDTH 7 0
BBX 7 5 0 1
BITMAP
ec
28
38
6c
ee
ENDCHAR
STARTCHAR y
ENCODING 121
SWIDTH 606 0
DWIDTH 7 0
BBX 6 7 0 -1
BITMAP
cc
48
28
30
10
20
f0
ENDCHAR
STARTCHAR z
ENCODING 122
SWIDTH 606 0
DWIDTH 7 0
BBX 5 5 1 1
BITMAP
f8
d0
20
58
f8
ENDCHAR
STARTCHAR braceleft
ENCODING 123
SWIDTH 606 0
DWIDTH 7 0
BBX 3 8 2 0
BITMAP
60
40
60
e0
60
40
60
60
ENDCHAR
STARTCHAR bar
ENCODING 124
SWIDTH 606 0
DWIDTH 7 0
BBX 2 9 2 -1
BITMAP
c0
c0
c0
c0
c0
c0
c0
c0
c0
ENDCHAR
STARTCHAR braceright
ENCODING 125
SWIDTH 606 0
DWIDTH 7 0
BBX 3 8 1 0
BITMAP
e0
60
60
60
60
60
60
c0
ENDCHAR
STARTCHAR asciitilde
ENCODING 126
SWIDTH 606 0
DWIDTH 7 0
BBX 5 2 1 3
BITMAP
68
b0
ENDCHAR
STARTCHAR space
ENCODING 160
SWIDTH 606 0
DWIDTH 7 0
BBX 0 0 0 1
BITMAP
ENDCHAR
STARTCHAR Aogonek
ENCODING 161
SWIDTH 606 0
DWIDTH 7 0
BBX 7 8 0 -1
BITMAP
70
38
28
7c
44
ee
0c
04
ENDCHAR
STARTCHAR breve
ENCODING 162
SWIDTH 606 0
DWIDTH 7 0
BBX 4 2 1 6
BITMAP
90
60
ENDCHAR
STARTCHAR Lslash
ENCODING 163
SWIDTH 606 0
DWIDTH 7 0
BBX 7 6 0 1
BITMAP
70
58
70
64
66
7e
ENDCHAR
STARTCHAR currency
ENCODING 164
SWIDTH 606 0
DWIDTH 7 0
BBX 5 5 1 2
BITMAP
48
f8
d8
d8
f8
ENDCHAR
STARTCHAR Lcaron
ENCODING 165
SWIDTH 606 0
DWIDTH 7 0
BBX 6 7 1 1
BITMAP
08
e0
c0
c0
c8
cc
fc
ENDCHAR
STARTCHAR Sacute
ENCODING 166
SWIDTH 606 0
DWIDTH 7 0
BBX 7 8 0 1
BITMAP
10
00
76
cc
78
0c
cc
f8
ENDCHAR
STARTCHAR section
ENCODING 167
SWIDTH 606 0
DWIDTH 7 0
BBX 5 7 1 0
BITMAP
f8
c0
f0
d8
38
f0
f0
ENDCHAR
STARTCHAR dieresis
ENCODING 168
SWIDTH 606 0
DWIDTH 7 0
BBX 3 1 1 7
BITMAP
a0
ENDCHAR
STARTCHAR Scaron
ENCODING 169
SWIDTH 606 0
DWIDTH 7 0
BBX 7 9 0 1
BITMAP
28
10
00
76
cc
78
0c
cc
f8
ENDCHAR
STARTCHAR Scedilla
ENCODING 170
SWIDTH 606 0
DWIDTH 7 0
BBX 7 8 0 -1
BITMAP
76
cc
78
0c
cc
f8
18
38
ENDCHAR
STARTCHAR Tcaron
ENCODING 171
SWIDTH 606 0
DWIDTH 7 0
BBX 7 9 0 1
BITMAP
28
10
00
fe
b6
b4
30
30
38
ENDCHAR
STARTCHAR Zacute
ENCODING 172
SWIDTH 606 0
DWIDTH 7 0
BBX 6 8 0 1
BITMAP
10
00
fc
c8
10
2c
6c
7c
ENDCHAR
STARTCHAR hyphen
ENCODING 173
SWIDTH 606 0
DWIDTH 7 0
BBX 2 1 2 4
BITMAP
c0
ENDCHAR
STARTCHAR Zcaron
ENCODING 174
SWIDTH 606 0
DWIDTH 7 0
BBX 6 9 0 1
BITMAP
28
10
00
fc
c8
10
2c
6c
7c
ENDCHAR
STARTCHAR Zdotaccent
ENCODING 175
SWIDTH 606 0
DWIDTH 7 0
BBX 6 8 0 1
BITMAP
30
00
fc
c8
10
2c
6c
7c
ENDCHAR
STARTCHAR degree
ENCODING 176
SWIDTH 606 0
DWIDTH 7 0
BBX 5 3 1 5
BITMAP
70
d8
70
ENDCHAR
STARTCHAR aogonek
ENCODING 177
SWIDTH 606 0
DWIDTH 7 0
BBX 6 7 0 -1
BITMAP
78
0c
7c
cc
7c
1c
0c
ENDCHAR
STARTCHAR ogonek
ENCODING 178
SWIDTH 606 0
DWIDTH 7 0
BBX 2 2 2 0
BITMAP
40
c0
ENDCHAR
STARTCHAR lslash
ENCODING 179
SWIDTH 606 0
DWIDTH 7 0
BBX 5 7 1 1
BITMAP
60
40
70
60
a0
60
f8
ENDCHAR
STARTCHAR acute
ENCODING 180
SWIDTH 606 0
DWIDTH 7 0
BBX 3 1 2 7
BITMAP
40
ENDCHAR
STARTCHAR lcaron
ENCODING 181
SWIDTH 606 0
DWIDTH 7 0
BBX 6 7 1 1
BITMAP
68
20
20
20
60
60
f8
ENDCHAR
STARTCHAR sacute
ENCODING 182
SWIDTH 606 0
DWIDTH 7 0
BBX 6 7 0 1
BITMAP
10
00
78
cc
7c
cc
f8
ENDCHAR
STARTCHAR caron
ENCODING 183
SWIDTH 606 0
DWIDTH 7 0
BBX 3 2 2 6
BITMAP
a0
40
ENDCHAR
STARTCHAR cedilla
ENCODING 184
SWIDTH 606 0
DWIDTH 7 0
BBX 3 3 2 -1
BITMAP
60
60
e0
ENDCHAR
STARTCHAR scaron
ENCODING 185
SWIDTH 606 0
DWIDTH 7 0
BBX 6 7 0 1
BITMAP
28
10
78
cc
7c
cc
f8
ENDCHAR
STARTCHAR scedilla
ENCODING 186
SWIDTH 606 0
DWIDTH 7 0
BBX 6 7 0 -1
BITMAP
78
cc
7c
cc
fc
18
38
ENDCHAR
STARTCHAR tcaron
ENCODING 187
SWIDTH 606 0
DWIDTH 7 0
BBX 5 7 1 1
BITMAP
10
c0
f0
c0
c0
c0
f8
ENDCHAR
STARTCHAR zacute
ENCODING 188
SWIDTH 606 0
DWIDTH 7 0
BBX 5 7 1 1
BITMAP
20
00
f8
d0
20
58
f8
ENDCHAR
STARTCHAR hungarumlaut
ENCODING 189
SWIDTH 606 0
DWIDTH 7 0
BBX 4 1 2 7
BITMAP
60
ENDCHAR
STARTCHAR zcaron
ENCODING 190
SWIDTH 606 0
DWIDTH 7 0
BBX 5 7 1 1
BITMAP
50
20
f8
d0
20
58
f8
ENDCHAR
STARTCHAR zdotaccent
ENCODING 191
SWIDTH 606 0
DWIDTH 7 0
BBX 5 7 1 1
BITMAP
60
00
f8
d0
20
58
f8
ENDCHAR
STARTCHAR Racute
ENCODING 192
SWIDTH 606 0
DWIDTH 7 0
BBX 6 8 0 1
BITMAP
10
00
fc
6c
78
78
68
ec
ENDCHAR
STARTCHAR Aacute
ENCODING 193
SWIDTH 606 0
DWIDTH 7 0
BBX 7 8 0 1
BITMAP
10
00
70
28
28
7c
44
ee
ENDCHAR
STARTCHAR Acircumflex
ENCODING 194
SWIDTH 606 0
DWIDTH 7 0
BBX 7 9 0 1
BITMAP
10
28
00
70
28
28
7c
44
ee
ENDCHAR
STARTCHAR Abreve
ENCODING 195
SWIDTH 606 0
DWIDTH 7 0
BBX 7 9 0 1
BITMAP
48
30
00
70
28
28
7c
44
ee
ENDCHAR
STARTCHAR Adieresis
ENCODING 196
SWIDTH 606 0
DWIDTH 7 0
BBX 7 8 0 1
BITMAP
50
00
70
28
28
7c
44
ee
ENDCHAR
STARTCHAR Lacute
ENCODING 197
SWIDTH 606 0
DWIDTH 7 0
BBX 6 8 1 1
BITMAP
40
00
e0
c0
c0
c8
cc
fc
ENDCHAR
STARTCHAR Cacute
ENCODING 198
SWIDTH 606 0
DWIDTH 7 0
BBX 7 8 0 1
BITMAP
10
00
7c
c4
c0
c0
44
3c
ENDCHAR
STARTCHAR Ccedilla
ENCODING 199
SWIDTH 606 0
DWIDTH 7 0
BBX 7 8 0 -1
BITMAP
7c
c4
c0
c0
44
38
18
38
ENDCHAR
STARTCHAR Ccaron
ENCODING 200
SWIDTH 606 0
DWIDTH 7 0
BBX 7 9 0 1
BITMAP
28
10
00
7c
c4
c0
c0
44
3c
ENDCHAR
STARTCHAR Eacute
ENCODING 201
SWIDTH 606 0
DWIDTH 7 0
BBX 7 8 0 1
BITMAP
10
00
fe
7c
78
7e
66
fe
ENDCHAR
STARTCHAR Eogonek
ENCODING 202
SWIDTH 606 0
DWIDTH 7 0
BBX 7 8 0 -1
BITMAP
fe
7c
78
7e
66
fe
18
0e
ENDCHAR
STARTCHAR Edieresis
ENCODING 203
SWIDTH 606 0
DWIDTH 7 0
BBX 7 8 0 1
BITMAP
50
00
fe
7c
78
7e
66
fe
ENDCHAR
STARTCHAR Ecaron
ENCODING 204
SWIDTH 606 0
DWIDTH 7 0
BBX 7 9 0 1
BITMAP
28
10
00
fe
7c
78
7e
66
fe
ENDCHAR
STARTCHAR Iacute
ENCODING 205
SWIDTH 606 0
DWIDTH 7 0
BBX 5 8 1 1
BITMAP
20
00
f8
60
60
60
60
f8
ENDCHAR
STARTCHAR Icircumflex
ENCODING 206
SWIDTH 606 0
DWIDTH 7 0
BBX 5 9 1 1
BITMAP
20
50
00
f8
60
60
60
60
f8
ENDCHAR
STARTCHAR Dcaron
ENCODING 207
SWIDTH 606 0
DWIDTH 7 0
BBX 7 9 0 1
BITMAP
28
10
00
fc
66
66
66
66
fc
ENDCHAR
STARTCHAR Eth
ENCODING 208
SWIDTH 606 0
DWIDTH 7 0
BBX 7 6 0 1
BITMAP
fc
66
f6
66
66
fc
ENDCHAR
STARTCHAR Nacute
ENCODING 209
SWIDTH 606 0
DWIDTH 7 0
BBX 7 8 0 1
BITMAP
10
00
ce
ec
dc
dc
dc
ec
ENDCHAR
STARTCHAR Ncaron
ENCODING 210
SWIDTH 606 0
DWIDTH 7 0
BBX 7 9 0 1
BITMAP
28
10
00
ce
ec
dc
dc
dc
ec
ENDCHAR
STARTCHAR Oacute
ENCODING 211
SWIDTH 606 0
DWIDTH 7 0
BBX 7 8 0 1
BITMAP
10
00
78
c6
c6
c6
4c
38
ENDCHAR
STARTCHAR Ocircumflex
ENCODING 212
SWIDTH 606 0
DWIDTH 7 0
BBX 7 9 0 1
BITMAP
10
28
00
78
c6
c6
c6
4c
38
ENDCHAR
STARTCHAR Ohungarumlaut
ENCODING 213
SWIDTH 606 0
DWIDTH 7 0
BBX 7 8 0 1
BITMAP
18
00
78
c6
c6
c6
4c
38
ENDCHAR
STARTCHAR Odieresis
ENCODING 214
SWIDTH 606 0
DWIDTH 7 0
BBX 7 8 0 1
BITMAP
50
00
78
c6
c6
c6
4c
38
ENDCHAR
STARTCHAR multiply
ENCODING 215
SWIDTH 606 0
DWIDTH 7 0
BBX 5 5 1 2
BITMAP
48
58
20
50
90
ENDCHAR
STARTCHAR Rcaron
ENCODING 216
SWIDTH 606 0
DWIDTH 7 0
BBX 6 9 0 1
BITMAP
28
10
00
fc
6c
78
78
68
ec
ENDCHAR
STARTCHAR Uring
ENCODING 217
SWIDTH 606 0
DWIDTH 7 0
BBX 6 9 0 1
BITMAP
38
30
00
ec
cc
cc
cc
cc
78
ENDCHAR
STARTCHAR Uacute
ENCODING 218
SWIDTH 606 0
DWIDTH 7 0
BBX 6 8 0 1
BITMAP
10
00
ec
cc
cc
cc
cc
78
ENDCHAR
STARTCHAR Uhungarumlaut
ENCODING 219
SWIDTH 606 0
DWIDTH 7 0
BBX 6 8 0 1
BITMAP
18
00
ec
cc
cc
cc
cc
78
ENDCHAR
STARTCHAR Udieresis
ENCODING 220
SWIDTH 606 0
DWIDTH 7 0
BBX 6 8 0 1
BITMAP
50
00
ec
cc
cc
cc
cc
78
ENDCHAR
STARTCHAR Yacute
ENCODING 221
SWIDTH 606 0
DWIDTH 7 0
BBX 6 8 0 1
BITMAP
10
00
ec
48
58
30
30
38
ENDCHAR
STARTCHAR Tcedilla
ENCODING 222
SWIDTH 606 0
DWIDTH 7 0
BBX 7 8 0 -1
BITMAP
fe
b6
b4
30
30
38
30
30
ENDCHAR
STARTCHAR germandbls
ENCODING 223
SWIDTH 606 0
DWIDTH 7 0
BBX 5 7 1 1
BITMAP
70
d8
d0
f0
d8
d8
f0
ENDCHAR
STARTCHAR racute
ENCODING 224
SWIDTH 606 0
DWIDTH 7 0
BBX 5 7 1 1
BITMAP
20
00
b8
e0
c0
c0
f0
ENDCHAR
STARTCHAR aacute
ENCODING 225
SWIDTH 606 0
DWIDTH 7 0
BBX 6 7 0 1
BITMAP
10
00
78
0c
7c
cc
7c
ENDCHAR
STARTCHAR acircumflex
ENCODING 226
SWIDTH 606 0
DWIDTH 7 0
BBX 6 7 0 1
BITMAP
38
00
78
0c
7c
cc
7c
ENDCHAR
STARTCHAR abreve
ENCODING 227
SWIDTH 606 0
DWIDTH 7 0
BBX 6 7 0 1
BITMAP
48
30
78
0c
7c
cc
7c
ENDCHAR
STARTCHAR adieresis
ENCODING 228
SWIDTH 606 0
DWIDTH 7 0
BBX 6 7 0 1
BITMAP
50
00
78
0c
7c
cc
7c
ENDCHAR
STARTCHAR lacute
ENCODING 229
SWIDTH 606 0
DWIDTH 7 0
BBX 5 9 1 1
BITMAP
20
00
60
20
20
20
60
60
f8
ENDCHAR
STARTCHAR cacute
ENCODING 230
SWIDTH 606 0
DWIDTH 7 0
BBX 6 7 0 1
BITMAP
10
00
3c
c4
c0
c4
78
ENDCHAR
STARTCHAR ccedilla
ENCODING 231
SWIDTH 606 0
DWIDTH 7 0
BBX 6 7 0 -1
BITMAP
7c
cc
c0
c4
78
18
38
ENDCHAR
STARTCHAR ccaron
ENCODING 232
SWIDTH 606 0
DWIDTH 7 0
BBX 6 7 0 1
BITMAP
28
10
3c
c4
c0
c4
78
ENDCHAR
STARTCHAR eacute
ENCODING 233
SWIDTH 606 0
DWIDTH 7 0
BBX 8 7 0 1
BITMAP
10
00
38
c6
fe
c7
78
ENDCHAR
STARTCHAR eogonek
ENCODING 234
SWIDTH 606 0
DWIDTH 7 0
BBX 6 7 1 -1
BITMAP
70
88
f8
84
f8
60
30
ENDCHAR
STARTCHAR edieresis
ENCODING 235
SWIDTH 606 0
DWIDTH 7 0
BBX 8 7 0 1
BITMAP
50
00
38
c6
fe
c7
78
ENDCHAR
STARTCHAR ecaron
ENCODING 236
SWIDTH 606 0
DWIDTH 7 0
BBX 8 7 0 1
BITMAP
28
10
38
c6
fe
c7
78
ENDCHAR
STARTCHAR iacute
ENCODING 237
SWIDTH 606 0
DWIDTH 7 0
BBX 5 7 1 1
BITMAP
20
00
e0
60
60
60
f8
ENDCHAR
STARTCHAR icircumflex
ENCODING 238
SWIDTH 606 0
DWIDTH 7 0
BBX 5 7 1 1
BITMAP
70
00
e0
60
60
60
f8
ENDCHAR
STARTCHAR dcaron
ENCODING 239
SWIDTH 606 0
DWIDTH 7 0
BBX 8 7 0 1
BITMAP
1e
04
7c
cc
c4
cc
7e
ENDCHAR
STARTCHAR dbar
ENCODING 240
SWIDTH 606 0
DWIDTH 7 0
BBX 7 7 0 1
BITMAP
1c
3e
7c
cc
c4
cc
7e
ENDCHAR
STARTCHAR nacute
ENCODING 241
SWIDTH 606 0
DWIDTH 7 0
BBX 6 7 0 1
BITMAP
10
00
f8
6c
6c
6c
ec
ENDCHAR
STARTCHAR ncaron
ENCODING 242
SWIDTH 606 0
DWIDTH 7 0
BBX 6 7 0 1
BITMAP
28
10
f8
6c
6c
6c
ec
ENDCHAR
STARTCHAR oacute
ENCODING 243
SWIDTH 606 0
DWIDTH 7 0
BBX 7 7 0 1
BITMAP
10
00
78
c6
c6
c6
78
ENDCHAR
STARTCHAR ocircumflex
ENCODING 244
SWIDTH 606 0
DWIDTH 7 0
BBX 7 7 0 1
BITMAP
38
00
78
c6
c6
c6
78
ENDCHAR
STARTCHAR ohungarumlaut
ENCODING 245
SWIDTH 606 0
DWIDTH 7 0
BBX 7 7 0 1
BITMAP
18
00
78
c6
c6
c6
78
ENDCHAR
STARTCHAR odieresis
ENCODING 246
SWIDTH 606 0
DWIDTH 7 0
BBX 7 7 0 1
BITMAP
50
00
78
c6
c6
c6
78
ENDCHAR
STARTCHAR divide
ENCODING 247
SWIDTH 606 0
DWIDTH 7 0
BBX 5 5 1 2
BITMAP
20
00
f8
00
20
ENDCHAR
STARTCHAR rcaron
ENCODING 248
SWIDTH 606 0
DWIDTH 7 0
BBX 5 7 1 1
BITMAP
50
20
b8
e0
c0
c0
f0
ENDCHAR
STARTCHAR uring
ENCODING 249
SWIDTH 606 0
DWIDTH 7 0
BBX 6 8 0 1
BITMAP
30
38
10
ec
6c
6c
6c
3c
ENDCHAR
STARTCHAR uacute
ENCODING 250
SWIDTH 606 0
DWIDTH 7 0
BBX 6 7 0 1
BITMAP
10
00
ec
6c
6c
6c
3c
ENDCHAR
STARTCHAR uhungarumlaut
ENCODING 251
SWIDTH 606 0
DWIDTH 7 0
BBX 6 7 0 1
BITMAP
18
00
ec
6c
6c
6c
3c
ENDCHAR
STARTCHAR udieresis
ENCODING 252
SWIDTH 606 0
DWIDTH 7 0
BBX 6 7 0 1
BITMAP
50
00
ec
6c
6c
6c
3c
ENDCHAR
STARTCHAR yacute
ENCODING 253
SWIDTH 606 0
DWIDTH 7 0
BBX 6 9 0 -1
BITMAP
10
00
cc
48
28
30
10
20
f0
ENDCHAR
STARTCHAR tcedilla
ENCODING 254
SWIDTH 606 0
DWIDTH 7 0
BBX 5 8 1 -1
BITMAP
c0
f0
c0
c0
c0
78
30
70
ENDCHAR
STARTCHAR dotaccent
ENCODING 255
SWIDTH 606 0
DWIDTH 7 0
BBX 2 1 2 7
BITMAP
c0
ENDCHAR
ENDFONT
